<svg width="33" height="32" viewBox="0 0 33 32" fill="none" xmlns="http://www.w3.org/2000/svg">
<g id="trash-alt">
<path id="Vector" d="M15.5 4C14.9766 4 14.4414 4.18359 14.0625 4.5625C13.6836 4.94141 13.5 5.47656 13.5 6V7H7.5V9H8.5V25C8.5 26.6445 9.85547 28 11.5 28H23.5C25.1445 28 26.5 26.6445 26.5 25V9H27.5V7H21.5V6C21.5 5.47656 21.3164 4.94141 20.9375 4.5625C20.5586 4.18359 20.0234 4 19.5 4H15.5ZM15.5 6H19.5V7H15.5V6ZM10.5 9H24.5V25C24.5 25.5547 24.0547 26 23.5 26H11.5C10.9453 26 10.5 25.5547 10.5 25V9ZM12.5 12V23H14.5V12H12.5ZM16.5 12V23H18.5V12H16.5ZM20.5 12V23H22.5V12H20.5Z" fill="#4C2F15"/>
</g>
</svg>
